<svg id="Warstwa_1" data-name="Warstwa 1" xmlns="http://www.w3.org/2000/svg" viewBox="0 0 553.91 886.7"><defs><style>.cls-1{fill:#93654c;}.cls-2,.cls-5,.cls-7{fill:#734933;}.cls-3{fill:#b0856e;}.cls-4{fill:#fff;}.cls-5{opacity:0.2;}.cls-6{opacity:0.15;}.cls-7{opacity:0.02;}.cls-8{fill:none;}.cls-9{opacity:0.6;}.cls-10{font-size:120px;font-family:Lato-Bold, Lato;font-weight:700;}</style></defs><title>logo svg</title><path class="cls-1" d="M677.68,368.05c16.65,17.3-6.86,57.47-6.86,57.79,0,23.71-34.47,38.36-41.4,40.55a.33.33,0,0,0-.13.07.71.71,0,0,0-.23,1c5.08,6.73.31,19.8-2.53,26.19a18,18,0,0,1-3.46,4.87c-3.36,3.65-2.62,13.15-.83,22.36A76.34,76.34,0,0,0,636.35,552c20.84,28,14.53,56.5,14.53,60.73,0,.09,0,.18,0,.24-13.73,77.72-89.48,75.76-89.48,75.76h-4.87a67,67,0,0,1-113.1,0h-5.38c-6.62,0-75.92-1.77-89-75.76.29-3.23-6.75-32.39,14.55-61a76.63,76.63,0,0,0,14.12-31.1c1.76-9.21,2.52-18.71-.86-22.36a18.16,18.16,0,0,1-3.44-4.87c-2.8-6.28-7.46-19.05-2.77-25.87a1,1,0,0,0-.51-1.55c-7.69-2.57-41-17.13-41-40.43,0-.24-12.82-22.2-12.82-40.65,0-6.52,1.61-12.62,6-17.14,0,0-32.33-75.45,12.41-71.53,2.45.16,7.43.32,19.39,5.1S385,315.78,415.39,334.4c5.23-2.28,39.2-24.16,84.27-20.9h.68c3.11-.23,6.16-.33,9.16-.33,40.46,0,70.24,19.11,75.09,21.23,60.76-37.23,75.78-37.56,80.68-37.88C710,292.6,677.68,368,677.68,368.05Z" transform="translate(-223.05 31.52)"/><circle class="cls-2" cx="276.95" cy="684.25" r="67.06"/><path class="cls-3" d="M556.59,669.63c.75-18.29-9.66-25.44-27.28-34.17-7.74-3.83-17.82-15.4-27.36-15.79C490,619.18,480,631.05,470.68,636c-15.15,8-26.61,12.74-27.28,29-1.07,26.31,23.39,48.68,54.65,50S555.51,695.94,556.59,669.63Z" transform="translate(-223.05 31.52)"/><path class="cls-2" d="M513.28,671.06s6-2.68,10.13-.93c2,.6,21.39,10.89,23.35-6.09-.33-1.15,3.59-16-19.52-13.23C526.35,651.3,499.73,660.61,513.28,671.06Z" transform="translate(-223.05 31.52)"/><path class="cls-2" d="M486.7,671.06s-6-2.68-10.12-.93c-2,.6-21.39,10.89-23.35-6.09.32-1.15-3.59-16,19.51-13.23C473.64,651.3,500.26,660.61,486.7,671.06Z" transform="translate(-223.05 31.52)"/><path d="M424.41,492.64c-6-8.44-4.9-20.88-4.9-20.88h0s16.87-1.82,22.9,6.63,1.32,15.23-2.16,17.71S430.44,501.09,424.41,492.64Z" transform="translate(-223.05 31.52)"/><path d="M575.47,492.48c5.93-8.31,4.82-20.54,4.82-20.54h0s-16.6-1.79-22.53,6.52-1.29,15,2.13,17.43S569.54,500.79,575.47,492.48Z" transform="translate(-223.05 31.52)"/><path class="cls-4" d="M572.67,598.55c3.51-6.45,10.66-9.26,11-27.22,0-.11-.65-22.43,3.27-18.94s9.36,12.52,6.75,43.32h0s-6,27.76-17.2,23.08c-1.54-.64-2.64-11.49-3.81-15.24C572.29,602.36,571.56,600.57,572.67,598.55Z" transform="translate(-223.05 31.52)"/><path class="cls-4" d="M427.33,598.55c-3.51-6.45-10.67-9.26-11-27.22,0-.11.66-22.43-3.26-18.94s-9.36,12.52-6.75,43.32h0s6,27.76,17.2,23.08c1.54-.64,2.64-11.49,3.81-15.24C427.7,602.36,428.44,600.57,427.33,598.55Z" transform="translate(-223.05 31.52)"/><path class="cls-5" d="M677.68,368.05c16.65,17.3-6.86,57.47-6.86,57.79,0,23.71-34.47,38.36-41.4,40.55a.33.33,0,0,0-.13.07c-.71-1.19-4.47-7.58-9.55-17.34-13.44-25.88-36-75.45-35.15-114.72,60.76-37.23,75.78-37.56,80.68-37.88C710,292.6,677.68,368,677.68,368.05Z" transform="translate(-223.05 31.52)"/><path class="cls-6" d="M619.74,449.12c2.55,4.17,26-10.68,26-26.66,0-.22,15.85-27.29,4.62-39h0s21.8-50.85-8.36-48.21c-3.31.22-13.43.44-54.38,25.53l-.64.33S597.71,413.14,619.74,449.12Z" transform="translate(-223.05 31.52)"/><path class="cls-7" d="M322.32,368.05c-16.65,17.3,6.86,57.47,6.86,57.79,0,23.71,34.47,38.36,41.4,40.55a.33.33,0,0,1,.13.07c.71-1.19,4.47-7.58,9.55-17.34,13.44-25.88,36.05-75.45,35.15-114.72-60.76-37.23-75.78-37.56-80.68-37.88C290,292.6,322.32,368,322.32,368.05Z" transform="translate(-223.05 31.52)"/><path class="cls-6" d="M380.26,449.12c-2.55,4.17-26-10.68-26-26.66,0-.22-15.85-27.29-4.62-39h0s-21.8-50.85,8.36-48.21c3.31.22,13.43.44,54.38,25.53l.64.33S402.29,413.14,380.26,449.12Z" transform="translate(-223.05 31.52)"/><line class="cls-8" x1="277.47" y1="646.57" x2="277.47" y2="651.37"/><path class="cls-1" d="M584.54,328.42a83.36,83.36,0,0,1,2.47-16.9l-14.43,10.27a16.81,16.81,0,0,1-.46-11.93,36.7,36.7,0,0,0-18.36,5.43,18,18,0,0,1,2.49-15.14l-22.71,3.91c-4.25.73-9.5,2.51-9.78,6.76a58.55,58.55,0,0,1-1.38-15.67,24.28,24.28,0,0,0-13.9,12.1,45.73,45.73,0,0,1-1.34-14.55,57.74,57.74,0,0,0-17.3,15,25.33,25.33,0,0,1-4.28-13,25.19,25.19,0,0,0-15.67,15.54,32.6,32.6,0,0,0-16-13.86A23.71,23.71,0,0,0,456.64,312a52.86,52.86,0,0,0-24.09-5.74,17.63,17.63,0,0,1,10.66,16.17,175.09,175.09,0,0,0-21.33-9.23,21.12,21.12,0,0,1,6.23,14.05l-21.2-15.39,7.88,22.86c.73,2.14,1.53,4.37,3.24,5.86a12.12,12.12,0,0,0,5.91,2.35c36.74,6.84,73.35-17.51,110.5-13.32l-25.73,14.54-85,7.41S413.25,364,433.46,365s136.22-4.82,139.36-15.17,11.5,3.1,11.5-5.17S584.54,328.42,584.54,328.42Z" transform="translate(-223.05 31.52)"/><path class="cls-9" d="M417.85,442.41l44.89,22A9.32,9.32,0,0,1,467,476.91h0c-2.27,4.62-3.77-1.79-8.39-4.06l-44.88-22c-4.62-2.27-10.61.47-8.35-4.15h0A9.32,9.32,0,0,1,417.85,442.41Z" transform="translate(-223.05 31.52)"/><path class="cls-9" d="M583.13,442.41l-44.89,22A9.32,9.32,0,0,0,534,476.91h0c2.27,4.62,3.77-1.79,8.39-4.06l44.88-22c4.62-2.27,10.61.47,8.35-4.15h0A9.32,9.32,0,0,0,583.13,442.41Z" transform="translate(-223.05 31.52)"/><text class="cls-10" transform="matrix(0.82, -0.58, 0.58, 0.82, 81.23, 336.83)">U</text><text class="cls-10" transform="translate(146.96 285.1) rotate(-14.35)">W</text><text class="cls-10" transform="translate(257.98 258.35) rotate(4.65)">A</text><text class="cls-10" transform="translate(333.57 263.14) rotate(20.55)">G</text><text class="cls-10" transform="matrix(0.8, 0.6, -0.6, 0.8, 409.49, 290.94)">A</text><text class="cls-10" transform="matrix(0.91, 0.42, -0.42, 0.91, 120.56, 808.68)">D</text><text class="cls-10" transform="translate(221.41 849.35) rotate(3.94)">Z</text><text class="cls-10" transform="translate(306.69 851.51) rotate(-9.76)">I</text><text class="cls-10" transform="matrix(0.91, -0.42, 0.42, 0.91, 356.42, 844.13)">K</text><text x="-223.05" y="31.52"/></svg>